<?xml version="1.0" standalone="no"?>
<!DOCTYPE svg PUBLIC "-//W3C//DTD SVG 20010904//EN"
 "http://www.w3.org/TR/2001/REC-SVG-20010904/DTD/svg10.dtd">
<svg version="1.0" xmlns="http://www.w3.org/2000/svg"
 width="720.000000pt" height="720.000000pt" viewBox="0 0 720.000000 720.000000"
 preserveAspectRatio="xMidYMid meet">

<g transform="translate(0.000000,720.000000) scale(0.100000,-0.100000)"
fill="#000000" stroke="none">
<path d="M1415 5867 c-179 -41 -213 -63 -270 -177 -31 -61 -35 -79 -35 -144
l0 -75 102 -86 c56 -47 108 -83 115 -81 6 3 48 10 92 16 l81 11 192 -148 c106
-81 265 -202 353 -268 153 -115 195 -147 435 -331 58 -44 134 -102 170 -129
36 -27 76 -59 89 -72 47 -46 83 -25 160 96 42 65 52 112 31 150 -5 10 -78 70
-162 134 -84 64 -177 134 -206 156 -60 47 -99 55 -86 19 12 -36 10 -104 -5
-131 -18 -33 -77 -65 -92 -50 -8 8 -7 17 3 33 18 30 42 9 -455 387 -253 193
-317 244 -317 257 0 7 6 21 14 31 18 24 -29 56 477 -327 107 -81 218 -165 247
-188 29 -22 57 -40 62 -40 6 0 10 15 10 33 0 18 5 38 12 45 10 10 7 18 -12 37
-22 21 -361 281 -610 467 -141 105 -147 112 -155 172 -4 28 -11 58 -16 67 -7
14 -144 124 -174 140 -5 3 -28 2 -50 -4z m114 -171 c17 -20 -4 -113 -36 -160
-51 -72 -151 -116 -186 -81 -22 21 -21 35 1 35 10 0 39 14 65 30 38 24 54 43
77 93 17 34 30 70 30 80 0 20 32 23 49 3z m1119 -1033 c20 -15 45 -35 54 -44
10 -10 27 -24 40 -33 14 -10 19 -19 13 -25 -7 -7 -32 10 -70 44 -33 30 -68 55
-77 55 -10 0 -18 7 -18 15 0 22 17 18 58 -12z"/>
<path d="M3527 5724 c-273 -43 -557 -146 -790 -288 -120 -73 -167 -107 -167
-122 0 -8 28 -35 61 -62 34 -26 93 -72 132 -104 l69 -56 52 33 c153 98 376
188 576 232 99 22 146 26 341 30 213 5 235 3 356 -21 182 -36 322 -84 481
-166 178 -92 299 -179 446 -320 158 -154 257 -282 335 -438 l22 -42 182 2
c175 3 182 4 179 23 -1 11 -31 79 -66 150 -110 223 -204 353 -382 530 -185
185 -376 320 -608 430 -206 98 -391 155 -612 189 -127 20 -478 20 -607 0z"/>
<path d="M3942 4890 c-32 -20 -33 -22 -30 -78 l3 -57 317 -3 318 -2 6 26 c10
40 -11 97 -45 117 -26 15 -60 17 -283 17 -236 0 -255 -1 -286 -20z"/>
<path d="M3334 4687 c-60 -71 -159 -201 -166 -219 -4 -10 -12 -18 -17 -18 -5
0 -13 -9 -16 -20 -6 -20 -25 -28 -25 -11 0 5 25 46 55 92 30 46 55 87 55 91 0
4 -49 8 -109 8 l-108 0 -7 -37 c-3 -21 -32 -78 -64 -128 -113 -174 -172 -271
-172 -283 0 -7 10 -28 23 -47 l22 -35 86 0 86 0 48 76 c117 185 289 319 499
389 451 150 939 -25 1182 -423 l41 -67 572 -3 572 -2 -6 57 c-3 32 -8 68 -11
81 l-4 22 -514 0 c-484 0 -514 1 -529 18 -34 38 -23 42 114 42 l131 0 -4 80
c-4 98 -16 113 -96 120 l-57 5 -3 123 -3 122 -773 0 -774 0 -28 -33z"/>
<path d="M1870 4513 c-29 -60 -56 -117 -60 -128 -31 -79 -42 -115 -65 -204
-14 -55 -25 -104 -25 -110 0 -7 56 -11 170 -11 l170 0 6 28 c17 72 65 215 98
286 20 44 35 85 32 92 -6 14 -240 154 -259 154 -7 0 -37 -48 -67 -107z"/>
<path d="M2671 4332 c-31 -44 -141 -233 -141 -242 0 -5 11 -30 25 -56 14 -26
25 -51 25 -55 0 -5 -193 -9 -430 -9 l-430 0 -37 -34 -38 -34 -120 -4 c-110 -3
-126 -6 -187 -35 -119 -56 -229 -184 -269 -314 -30 -97 -29 -99 41 -99 33 0
60 4 60 8 0 5 6 16 13 26 10 14 12 -1 9 -89 -7 -179 26 -288 119 -390 51 -55
165 -130 538 -355 239 -144 175 -134 854 -138 l577 -3 0 90 0 91 -527 0 c-479
1 -533 2 -578 18 -27 10 -126 65 -220 122 -199 121 -370 222 -440 261 -53 30
-102 93 -125 163 -20 61 -9 211 19 266 30 58 66 97 113 121 32 17 60 19 212
19 106 0 177 -4 181 -10 4 -6 177 -10 486 -10 l479 0 0 43 c0 61 28 212 51
271 10 28 19 54 19 59 0 4 -35 7 -77 7 -43 0 -83 4 -88 8 -18 12 -85 109 -85
122 0 7 19 42 41 78 39 61 40 67 24 77 -10 5 -30 20 -46 33 l-27 22 -21 -28z"/>
<path d="M3712 4344 c-238 -40 -427 -178 -535 -390 -22 -43 -51 -160 -43 -179
5 -13 39 -15 240 -15 l235 0 15 28 c52 99 206 151 314 107 49 -21 110 -80 133
-130 22 -46 25 -129 7 -189 -19 -63 -113 -150 -233 -216 -192 -104 -266 -166
-308 -259 -19 -40 -22 -69 -25 -238 l-4 -193 261 0 261 0 0 143 c0 78 4 147 8
152 4 6 41 28 82 49 145 75 255 158 322 240 62 77 114 178 133 257 19 83 19
238 0 314 -37 143 -142 296 -257 378 -117 83 -207 121 -338 142 -103 18 -159
17 -268 -1z"/>
<path d="M4792 3977 c-8 -9 -7 -25 4 -57 22 -62 44 -183 44 -236 l0 -44 429 0
c276 0 432 4 436 10 4 6 82 10 203 10 l196 0 51 -54 c65 -69 90 -143 90 -266
-1 -73 -5 -93 -29 -140 -15 -30 -37 -65 -49 -78 -26 -28 -565 -387 -615 -410
-33 -15 -101 -17 -644 -20 l-608 -3 0 -89 0 -90 579 0 c598 0 691 5 785 41 99
38 571 356 646 435 96 101 146 248 137 404 -2 52 -8 104 -13 114 -5 14 -4 17
4 12 7 -4 12 -15 12 -25 0 -29 22 -41 77 -41 39 0 55 4 60 15 7 20 -41 156
-75 209 -45 73 -136 154 -209 189 -62 29 -79 32 -183 35 l-115 4 -45 38 -45
37 -556 6 c-449 6 -559 4 -567 -6z"/>
<path d="M1580 3509 c-114 -24 -132 -249 -28 -346 38 -36 129 -73 178 -73 92
0 198 71 230 155 18 45 13 140 -8 188 -33 73 -40 76 -200 79 -78 2 -155 0
-172 -3z"/>
<path d="M2786 3512 c-707 -2 -748 -3 -741 -20 30 -69 38 -106 38 -174 1 -66
-4 -85 -31 -141 -30 -59 -90 -128 -138 -155 -19 -11 -19 -12 6 -83 l25 -72 68
-34 c38 -19 71 -32 74 -29 3 3 0 26 -7 51 -25 88 5 196 75 274 64 71 153 111
247 111 124 0 255 -97 295 -220 12 -35 26 -66 31 -68 6 -2 16 16 22 40 19 67
45 110 94 156 116 107 277 121 399 35 27 -19 50 -33 51 -31 1 2 19 38 40 82
40 83 146 206 213 247 36 23 37 28 7 32 -11 1 -356 1 -768 -1z"/>
<path d="M4810 3443 c-8 -36 -37 -112 -65 -168 l-52 -103 29 -37 c63 -85 83
-193 53 -290 -8 -27 -12 -51 -10 -53 2 -2 33 -4 69 -4 117 1 106 -4 90 49 -59
196 79 388 289 401 57 3 84 -1 128 -17 154 -58 241 -227 196 -378 l-16 -53 34
0 c20 0 67 16 108 37 78 38 83 45 115 159 2 6 -22 24 -53 39 -104 53 -182 167
-192 283 -4 44 0 74 19 130 l24 72 -376 0 -376 0 -14 -67z"/>
<path d="M5697 3482 c-82 -85 -69 -246 27 -330 37 -32 118 -62 167 -62 85 0
199 80 233 164 30 72 13 181 -36 233 -21 22 -27 23 -193 23 l-171 0 -27 -28z"/>
<path d="M2312 3108 c-65 -21 -132 -120 -132 -196 0 -33 24 -84 50 -107 20
-18 34 -20 169 -17 141 3 147 4 168 28 74 82 35 224 -77 282 -48 24 -120 28
-178 10z"/>
<path d="M2972 3100 c-75 -34 -112 -94 -112 -181 0 -56 22 -114 48 -124 9 -4
82 -6 162 -5 136 0 146 2 167 23 18 18 22 35 23 97 3 101 4 94 -32 136 -63 72
-168 94 -256 54z"/>
<path d="M5147 3106 c-100 -37 -153 -154 -113 -249 28 -66 40 -70 198 -68 118
2 146 5 161 19 76 69 56 208 -40 276 -50 34 -145 45 -206 22z"/>
<path d="M4545 3010 c-60 -61 -118 -104 -208 -155 -47 -26 -48 -27 -31 -46 15
-17 32 -19 164 -19 128 0 149 2 163 18 25 28 47 88 47 130 0 44 -38 126 -60
130 -8 1 -42 -25 -75 -58z"/>
<path d="M1970 2463 c0 -3 19 -31 42 -62 361 -482 884 -808 1458 -907 151 -27
563 -27 705 -1 456 84 879 302 1224 631 84 80 287 323 278 332 -2 3 -24 0 -48
-5 -24 -6 -124 -11 -222 -11 l-178 0 -87 -82 c-207 -196 -417 -321 -701 -418
l-136 -47 -3 -136 -3 -137 -503 0 c-450 0 -505 2 -510 16 -3 9 -6 73 -6 143
l0 128 -112 43 c-179 68 -320 143 -458 244 -72 53 -217 175 -254 215 l-30 31
-160 0 c-106 0 -182 5 -221 15 -70 17 -75 17 -75 8z"/>
<path d="M3510 2120 l0 -260 295 0 295 0 0 260 0 260 -295 0 -295 0 0 -260z"/>
</g>
</svg>
